<?xml version="1.0" encoding="UTF-8" standalone="no"?>
<svg width="205px" height="85px" viewBox="0 0 205 85" version="1.1" xmlns="http://www.w3.org/2000/svg" xmlns:xlink="http://www.w3.org/1999/xlink" xmlns:sketch="http://www.bohemiancoding.com/sketch/ns">
    <!-- Generator: Sketch 3.2.2 (9983) - http://www.bohemiancoding.com/sketch -->
    <title>willow-logo-green-bg</title>
    <desc>Created with Sketch.</desc>
    <defs></defs>
    <g id="Search-Results-Page" stroke="none" stroke-width="1" fill="none" fill-rule="evenodd" sketch:type="MSPage">
        <g id="Search-Results-Page-Desktop-HD-(Hover-Julie-Calendar)" sketch:type="MSArtboardGroup" transform="translate(-10.000000, -20.000000)">
            <g id="Side-Nav" sketch:type="MSLayerGroup">
                <g id="Logo" sketch:type="MSShapeGroup">
                    <g transform="translate(9.000000, 20.000000)">
                        <g id="willow-logo-green-bg">
                            <g id="layer1" transform="translate(0.629130, 0.476600)">
                                <g id="g3655">
                                    <path d="M0.37087,84 L0.37087,0 L205.37087,0 L205.37087,84 L0.37087,84 Z" id="path3059" fill="#333B47"></path>
                                    <g id="Outline" transform="translate(20.000000, 15.000000)" fill="#25A6F7">
                                        <path d="M34.46098,33.4026 C34.14473,33.02634 33.65223,33.01385 33.36598,33.3763 C33.08098,33.73879 32.52848,35.0963 32.31847,36.0638 C32.31847,36.0638 32.10597,37.04629 32.62472,37.87004 L32.80098,38.14629 C33.42598,38.40504 34.37472,38.4338 34.90847,38.21129 L35.08223,37.96754 C35.64348,37.18129 35.49098,36.18129 35.49098,36.18129 C35.34347,35.20129 34.77848,33.77879 34.46098,33.40254" id="path3063"></path>
                                        <path d="M25.63285,10.69259 C25.0166,10.40884 23.98535,10.42759 23.34161,10.73379 L23.23536,10.8913 C22.70786,11.67754 22.87536,12.59379 22.87536,12.59379 C23.05411,13.56754 23.34036,14.55504 23.51285,14.7888 C23.6841,15.02129 24.6991,15.64005 25.00036,15.28255 C25.30161,14.92629 25.86911,13.54129 26.05911,12.5688 C26.05911,12.5688 26.24661,11.60379 25.73286,10.84005 L25.63286,10.69254 L25.63285,10.69259 Z" id="path3067"></path>
                                        <path d="M39.33285,32.77398 C40.37284,35.53898 40.12409,38.51398 38.68035,40.53523 C37.66034,41.96398 35.9966,42.48648 35.9966,42.48648 C35.0516,42.78273 34.27909,43.03523 34.27909,43.04647 C34.27909,43.05897 34.13659,43.06777 33.96285,43.06777 C33.78784,43.06777 33.57785,43.06777 33.4966,43.06877 C33.4166,43.06977 33.19909,43.04627 33.19909,43.02127 C33.20009,42.99497 32.44034,42.69377 31.51159,42.34877 C31.51159,42.34877 29.83284,41.72752 28.88784,40.22752 C27.56784,38.13752 27.48909,35.16252 28.68159,32.46502 C28.90659,31.95502 29.79159,30.83127 29.79159,30.83127 C30.40409,30.05377 30.35284,28.82377 29.67784,28.10002 C29.67784,28.10002 28.50534,26.84127 27.41409,25.67752 C26.27535,24.46377 25.65784,23.80127 25.65784,23.80127 C24.98284,23.07752 23.8716,23.07127 23.18909,23.78757 C23.18909,23.78757 22.28534,24.73507 20.9591,26.11632 C19.9441,27.17132 18.95785,28.20382 18.95785,28.20382 C18.2741,28.92007 18.1966,30.15757 18.78409,30.95382 C18.78409,30.95382 19.7691,32.29007 19.99909,32.90257 C21.0266,35.64257 20.78409,38.57632 19.3666,40.56007 C18.34784,41.98507 16.66284,42.50632 16.66284,42.50632 C15.71659,42.80007 14.94284,43.04882 14.94159,43.06007 C14.94159,43.07007 14.8041,43.08007 14.63409,43.08007 C14.4641,43.08007 14.26284,43.08107 14.18534,43.08207 L14.11414,43.08207 L14.03164,43.08207 C13.94034,43.08007 13.86539,43.05707 13.86539,43.03207 C13.86639,43.00707 13.10665,42.70832 12.17539,42.36707 C12.17539,42.36707 10.4729,41.74332 9.52914,40.24457 C8.23414,38.19082 8.16539,35.25957 9.34789,32.59332 C9.65164,31.90832 10.71289,30.66207 10.71289,30.66207 C11.3554,29.90832 11.36414,28.66707 10.73289,27.90457 C10.73289,27.90457 7.86413,24.43582 6.01289,22.22082 C4.20913,20.06332 1.87539,17.24957 1.87539,17.24957 C1.24414,16.48707 0.72664,16.67457 0.72664,17.66457 L0.72664,38.99832 C0.72664,39.98832 1.42663,41.20707 2.28039,41.70582 L22.76914,53.66582 C23.62539,54.16457 25.02414,54.16457 25.87789,53.66582 L46.36664,41.70582 C47.22164,41.20707 47.92039,39.98832 47.92039,38.99832 L47.92039,18.72332 C47.92039,17.73332 47.37539,17.52207 46.70914,18.25457 L37.97164,27.96707 C37.31539,28.70707 37.29289,29.93707 37.92414,30.69957 C37.92414,30.69957 39.07914,32.09582 39.33289,32.77332" id="path3071"></path>
                                        <path d="M15.19947,33.49723 C14.91322,33.11098 14.41822,33.09723 14.10197,33.46843 C13.78448,33.83717 13.18948,35.22468 12.97572,36.19092 C12.97572,36.19092 12.77323,37.10217 13.26822,37.88842 L13.36947,38.05092 C14.04947,38.36842 15.08322,38.40593 15.66822,38.13222 L15.77072,37.98847 C16.31197,37.23347 16.16072,36.27972 16.16072,36.27972 C16.00572,35.30222 15.48572,33.88472 15.19947,33.49722" id="path3075"></path>
                                        <path d="M13.77497,24.64347 C14.40497,25.40597 15.47998,25.44472 16.16497,24.72847 C16.16497,24.72847 16.70622,24.16223 17.77122,23.05348 C18.87997,21.90098 20.20622,20.50848 20.20622,20.50848 C20.88747,19.79223 20.93122,18.58223 20.29992,17.81973 C20.29992,17.81973 19.37993,16.70848 19.12868,16.09223 C18.03867,13.38723 18.20743,10.45223 19.56618,8.42848 C20.55493,6.95473 22.26993,6.37098 22.26993,6.37098 C23.20743,6.05098 23.97368,5.77598 23.97243,5.75973 C23.97243,5.74093 23.97343,5.72723 23.97443,5.72723 C23.97443,5.72723 24.20443,5.72623 24.48318,5.72523 C24.76318,5.72323 24.99192,5.73643 24.99192,5.75273 C24.99192,5.77023 25.76068,6.03648 26.70193,6.34523 C26.70193,6.34523 28.41068,6.90647 29.39692,8.36898 C30.75943,10.38898 30.90692,13.33772 29.78442,16.06148 C29.50317,16.74148 28.58817,17.84523 28.58817,17.84523 C27.95568,18.60648 27.98942,19.82273 28.66437,20.54648 C28.66437,20.54648 29.63437,21.58773 30.63562,22.65398 C31.83687,23.93398 32.55562,24.70523 32.55562,24.70523 C33.23062,25.42898 34.32187,25.41898 34.98312,24.68023 L44.99497,13.57723 C45.66372,12.84848 45.51248,11.84348 44.65747,11.34473 L25.87872,0.38098 C25.02373,-0.11777 23.62497,-0.11777 22.76998,0.38098 L4.69623,10.93098 C3.84248,11.43098 3.65873,12.46348 4.28873,13.22723 C4.28873,13.22723 7.23123,16.78723 9.40373,19.38598 C11.67123,22.09973 13.77498,24.64348 13.77498,24.64348" id="path3079"></path>
                                    </g>
                                    <path d="M55.08235,52.96748 C54.9086,53.21123 54.6086,53.51623 53.93735,53.61748 C53.1236,53.50747 52.8011,53.14747 52.62485,52.86998 C52.1061,52.04623 52.1461,50.55998 52.69985,49.30498 C52.8461,49.03498 53.2586,48.48748 53.8861,47.71748 C54.5536,48.48873 55.03735,49.08748 55.2211,49.40123 C55.69735,50.72498 55.6436,52.18248 55.08235,52.96748 M45.71485,29.33623 C45.5486,29.63498 45.08985,30.20248 44.45235,30.93248 C43.8261,30.21248 43.3736,29.65498 43.19861,29.36498 C42.69486,28.06623 42.7086,26.67748 43.23481,25.89123 C43.34105,25.73373 43.62981,25.30373 44.51231,25.17748 C45.36106,25.28998 45.63231,25.69248 45.73356,25.83998 C46.2473,26.60373 46.23856,28.03748 45.71476,29.33623 M35.77101,52.98873 C35.66851,53.13248 35.39476,53.51373 34.60601,53.62873 C33.65476,53.50373 33.36976,53.04998 33.26851,52.88873 C32.77226,52.10248 32.82101,50.66248 33.36471,49.43373 C33.52596,49.13998 34.00471,48.55498 34.67721,47.79498 C35.29346,48.59873 35.72221,49.19998 35.87846,49.50248 C36.35346,50.80623 36.31096,52.23373 35.77096,52.98873 M66.21096,27.25248 C62.60596,31.15623 57.55221,36.68248 53.78346,41.02123 C52.87971,40.04873 51.83721,38.93373 50.63596,37.65373 C49.63596,36.58748 48.50846,35.38498 47.43846,34.22873 C48.78096,32.70998 49.50346,31.74123 49.78471,31.06123 C50.90721,28.33623 50.75971,25.38873 49.39721,23.36873 C48.41096,21.90623 46.87096,21.00873 44.99221,20.78373 L44.99221,20.72123 L43.97596,20.72723 L43.97196,20.72723 L43.97296,20.78973 C42.09546,21.03973 40.55421,21.95473 39.56546,23.42848 C38.20671,25.45223 38.03796,28.38723 39.12796,31.09223 C39.37921,31.70848 40.00921,32.57223 41.44671,34.20598 C40.20046,35.52723 38.87921,36.90098 37.77046,38.05348 C36.70546,39.16223 35.75796,40.14973 34.92046,41.03098 C33.48171,39.27598 31.67046,37.09973 29.40296,34.38598 C27.23045,31.78723 25.01546,29.13723 23.14171,26.83848 L20.72671,28.24973 L20.72671,30.86473 C22.37796,32.87223 24.20921,35.06348 26.01171,37.22098 C27.86421,39.43598 30.03796,42.03723 31.87921,44.29223 C30.42421,45.90848 29.65046,46.90848 29.34671,47.59473 C28.16546,50.25973 28.23296,53.19223 29.52921,55.24473 C30.47296,56.74348 31.99046,57.69598 33.86546,57.98723 L33.86446,58.07723 C33.94826,58.08123 34.03071,58.08223 34.11446,58.08223 C34.18446,58.08223 34.25696,58.08123 34.32696,58.07923 L34.94196,58.07923 L34.94296,58.03923 C36.80046,57.84298 38.34671,56.98423 39.36671,55.55923 C40.78421,53.57548 41.02671,50.64298 39.99921,47.90173 C39.76796,47.28923 39.11546,46.30173 37.71421,44.50423 C38.80171,43.35797 39.94421,42.17047 40.95796,41.11548 C42.28546,39.73423 43.43671,38.53298 44.43046,37.48423 C45.28671,38.40673 46.27421,39.46298 47.41296,40.67673 C48.50421,41.84172 49.74046,43.15798 50.90421,44.41673 C49.71796,45.86673 48.90671,46.95423 48.68171,47.46548 C47.48921,50.16173 47.56671,53.13673 48.88671,55.22798 C49.83296,56.72673 51.34296,57.68048 53.19921,57.97423 L53.19821,58.06673 C53.34821,58.07073 53.49571,58.07173 53.64571,58.06673 L54.27821,58.06673 L54.27821,58.02553 C56.12196,57.82678 57.66071,56.96303 58.67946,55.53553 C60.12321,53.51303 60.37196,50.53803 59.33196,47.77303 C59.07821,47.09553 58.38946,46.14428 56.77571,44.31303 C59.66196,40.99927 63.73446,36.48178 67.92071,31.92303" id="path3083" fill="#333B47"></path>
                                    <path d="M80.53522,36.20534 C81.05647,36.09284 81.54897,36.02409 82.01398,36.00284 C82.47773,35.97914 82.86772,35.96784 83.18522,35.96784 C83.63898,35.96784 84.08147,35.97914 84.51148,36.00284 C84.94272,36.02414 85.35147,36.08164 85.73648,36.1716 L88.55898,49.15785 L91.82148,36.1716 C92.52523,36.0366 93.29398,35.96784 94.13272,35.96784 C94.72272,35.99164 95.20897,36.01404 95.59522,36.03664 C95.97897,36.05794 96.31897,36.10414 96.61397,36.17163 L99.81147,48.92038 L102.59772,36.17163 C102.98272,36.10413 103.34522,36.05289 103.68647,36.02038 C104.02647,35.98538 104.41147,35.96788 104.84147,35.96788 C105.15897,35.96788 105.53897,35.97918 105.98022,36.00288 C106.42272,36.02418 106.91522,36.09288 107.45897,36.20538 L101.98647,53.74913 C101.57897,53.81533 101.14022,53.86163 100.67772,53.88288 C100.21272,53.90668 99.82147,53.91668 99.50522,53.91668 C99.16397,53.91668 98.78397,53.90668 98.36522,53.88288 C97.94647,53.86158 97.54272,53.80418 97.15897,53.71413 L93.96147,42.08663 L90.66522,53.74913 C90.23522,53.81533 89.78522,53.86163 89.32272,53.88288 C88.85647,53.90668 88.46772,53.91668 88.15022,53.91668 C87.83272,53.91668 87.46522,53.90668 87.04522,53.88288 C86.62522,53.86158 86.22272,53.80418 85.83772,53.71413 L80.53522,36.20538 L80.53522,36.20534 Z" id="path3087" fill="#FFFFFF"></path>
                                    <path d="M110.70485,33.2146 C110.5711,32.4446 110.5011,31.6846 110.5011,30.93585 C110.5011,30.2121 110.5711,29.4521 110.70485,28.6596 C111.0911,28.5896 111.50485,28.5396 111.9461,28.5046 C112.38859,28.4709 112.7911,28.4546 113.15235,28.4546 C113.53985,28.4546 113.95859,28.4709 114.4111,28.5046 C114.86485,28.5396 115.2836,28.5896 115.66985,28.6596 C115.73615,29.04585 115.78235,29.42335 115.80485,29.79835 C115.82735,30.17084 115.83855,30.55085 115.83855,30.93585 C115.83855,31.2996 115.82725,31.67335 115.80485,32.05835 C115.78235,32.4446 115.73615,32.82835 115.66985,33.2146 C115.2836,33.2821 114.86985,33.32835 114.4286,33.3496 C113.9861,33.3733 113.57235,33.3846 113.1861,33.3846 C112.82485,33.3846 112.4161,33.3733 111.96485,33.3496 C111.5111,33.3283 111.0911,33.2821 110.70485,33.2146" id="path3091" fill="#FFFFFF"></path>
                                    <path d="M120.16647,28.89697 C120.98273,28.76072 121.78647,28.69197 122.58147,28.69197 C123.35023,28.69197 124.14397,28.76067 124.95897,28.89697 L124.95897,46.74447 C124.95897,47.44697 124.99897,48.01322 125.08022,48.44447 C125.15652,48.87572 125.28397,49.20822 125.45272,49.44698 C125.62272,49.68573 125.84397,49.84948 126.11522,49.94073 C126.38898,50.03193 126.72647,50.07573 127.13522,50.07573 C127.31647,50.07573 127.51398,50.06573 127.72897,50.04323 C127.94647,50.01953 128.15647,49.98573 128.35897,49.94074 C128.60897,50.86949 128.73272,51.77574 128.73272,52.65949 L128.73272,53.15198 C128.73272,53.29949 128.71142,53.46574 128.66522,53.64573 C128.30147,53.75823 127.86647,53.83823 127.35647,53.88323 C126.84522,53.92823 126.37647,53.95073 125.94397,53.95073 C124.20022,53.95073 122.80022,53.47073 121.74772,52.50573 C120.69397,51.54323 120.16647,49.97323 120.16647,47.79823 L120.16647,28.89698 L120.16647,28.89697 Z" id="path3095" fill="#FFFFFF"></path>
                                    <path d="M110.84159,43.28234 L110.84159,36.03609 C111.65909,35.89984 112.46284,35.83109 113.25659,35.83109 C114.02659,35.83109 114.81909,35.89989 115.63535,36.03609 L115.63535,43.39359" id="path3099" fill="#FFFFFF"></path>
                                    <path d="M115.62184,38.6791 L115.62184,53.89285 C114.80559,54.0291 114.00184,54.09785 113.20684,54.09785 C112.43809,54.09785 111.64434,54.02905 110.82809,53.89285 L110.82809,37.12535" id="path3103" fill="#FFFFFF"></path>
                                    <path d="M130.67309,28.89697 C131.48935,28.76072 132.29434,28.69197 133.08684,28.69197 C133.85809,28.69197 134.65059,28.76067 135.46809,28.89697 L135.46809,46.74447 C135.46809,47.44697 135.50679,48.01322 135.58559,48.44447 C135.66559,48.87572 135.79059,49.20822 135.95934,49.44698 C136.13059,49.68573 136.35059,49.84948 136.62309,49.94073 C136.89559,50.03193 137.23559,50.07573 137.64309,50.07573 C137.82434,50.07573 138.02309,50.06573 138.23809,50.04323 C138.45309,50.01953 138.66309,49.98573 138.86809,49.94074 C139.11559,50.86949 139.24059,51.77574 139.24059,52.65949 L139.24059,53.15198 C139.24059,53.29949 139.21809,53.46574 139.17189,53.64573 C138.81065,53.75823 138.37315,53.83823 137.86315,53.88323 C137.35439,53.92823 136.8844,53.95073 136.45314,53.95073 C134.7069,53.95073 133.30815,53.47073 132.25565,52.50573 C131.1994,51.54323 130.67315,49.97323 130.67315,47.79823 L130.67315,28.89698 L130.67309,28.89697 Z" id="path3107" fill="#FFFFFF"></path>
                                    <path d="M148.81648,50.48384 C150.08647,50.48384 150.99898,50.01384 151.55272,49.07259 C152.10773,48.13259 152.38648,46.77884 152.38648,45.01009 C152.38648,43.24384 152.10773,41.89009 151.55272,40.94884 C150.99898,40.0076 150.08647,39.53885 148.81648,39.53885 C147.57023,39.53885 146.66898,40.0076 146.11522,40.94884 C145.56022,41.89009 145.28273,43.24384 145.28273,45.01009 C145.28273,46.77884 145.56022,48.13259 146.11522,49.07259 C146.66897,50.01384 147.57022,50.48384 148.81648,50.48384 M148.81648,54.15634 C147.38898,54.15634 146.14773,53.92134 145.09397,53.45884 C144.04147,52.99384 143.16647,52.34759 142.47647,51.52134 C141.78647,50.69384 141.26522,49.72384 140.91272,48.61509 C140.56147,47.50384 140.38647,46.30259 140.38647,45.01009 C140.38647,43.71884 140.56147,42.50759 140.91272,41.37259 C141.26522,40.24009 141.78647,39.26009 142.47647,38.43134 C143.16647,37.60509 144.04147,36.95384 145.09397,36.47634 C146.14772,36.00259 147.38898,35.76384 148.81648,35.76384 C150.24398,35.76384 151.49148,36.00259 152.55648,36.47634 C153.62273,36.95384 154.50523,37.60509 155.20773,38.43134 C155.91023,39.26009 156.43273,40.24009 156.77148,41.37259 C157.11273,42.50759 157.28023,43.71884 157.28023,45.01009 C157.28023,46.30259 157.11273,47.50384 156.77148,48.61509 C156.43273,49.72384 155.91023,50.69384 155.20773,51.52134 C154.50523,52.34759 153.62273,52.99384 152.55648,53.45884 C151.49148,53.92134 150.24398,54.15634 148.81648,54.15634" id="path3111" fill="#FFFFFF"></path>
                                    <path d="M158.09134,36.20534 C158.61259,36.09284 159.10509,36.02409 159.56884,36.00284 C160.03384,35.97914 160.42385,35.96784 160.74135,35.96784 C161.1951,35.96784 161.6376,35.97914 162.0676,36.00284 C162.49635,36.02414 162.9076,36.08164 163.29135,36.1716 L166.11385,49.15785 L169.37635,36.1716 C170.07884,36.0366 170.85009,35.96784 171.68885,35.96784 C172.2776,35.99164 172.76384,36.01404 173.1501,36.03664 C173.53509,36.05794 173.87635,36.10414 174.17009,36.17163 L177.36759,48.92038 L180.15384,36.17163 C180.53759,36.10413 180.90134,36.05289 181.24259,36.02038 C181.58009,35.98538 181.9676,35.96788 182.39634,35.96788 C182.71384,35.96788 183.0926,35.97918 183.53634,36.00288 C183.97759,36.02418 184.47134,36.09288 185.01509,36.20538 L179.54009,53.74913 C179.13509,53.81533 178.69634,53.86163 178.23134,53.88288 C177.76759,53.90668 177.37634,53.91668 177.06009,53.91668 C176.71884,53.91668 176.34009,53.90668 175.92134,53.88288 C175.50259,53.86158 175.09884,53.80418 174.71384,53.71413 L171.51759,42.08663 L168.22134,53.74913 C167.79009,53.81533 167.34134,53.86163 166.87884,53.88288 C166.41259,53.90668 166.02384,53.91668 165.7051,53.91668 C165.38884,53.91668 165.0201,53.90668 164.60135,53.88288 C164.18135,53.86158 163.77885,53.80418 163.3926,53.71413 L158.09135,36.20538 L158.09134,36.20534 Z" id="path3115" fill="#FFFFFF"></path>
                                </g>
                            </g>
                        </g>
                    </g>
                </g>
            </g>
        </g>
    </g>
</svg>