<?xml version="1.0" encoding="UTF-8" standalone="no"?>
<svg width="89px" height="85px" viewBox="0 0 89 85" version="1.1" xmlns="http://www.w3.org/2000/svg" xmlns:xlink="http://www.w3.org/1999/xlink" xmlns:sketch="http://www.bohemiancoding.com/sketch/ns">
    <!-- Generator: Sketch 3.3.2 (12043) - http://www.bohemiancoding.com/sketch -->
    <title>path3059 + Outline + path3083</title>
    <desc>Created with Sketch.</desc>
    <defs></defs>
    <g id="Page-1" stroke="none" stroke-width="1" fill="none" fill-rule="evenodd" sketch:type="MSPage">
        <g id="path3059-+-Outline-+-path3083" sketch:type="MSLayerGroup" transform="translate(0.000000, -1.000000)">
            <path d="M0.37087,86 L0.37087,1 L88.37087,1 L88.37087,86 L0.37087,86 L0.37087,86 Z" id="path3059" fill="#333B47" sketch:type="MSShapeGroup"></path>
            <g id="Outline" transform="translate(20.000000, 16.000000)" fill="#25A6F7" sketch:type="MSShapeGroup">
                <path d="M34.46098,33.4026 C34.14473,33.02634 33.65223,33.01385 33.36598,33.3763 C33.08098,33.73879 32.52848,35.0963 32.31847,36.0638 C32.31847,36.0638 32.10597,37.04629 32.62472,37.87004 L32.80098,38.14629 C33.42598,38.40504 34.37472,38.4338 34.90847,38.21129 L35.08223,37.96754 C35.64348,37.18129 35.49098,36.18129 35.49098,36.18129 C35.34347,35.20129 34.77848,33.77879 34.46098,33.40254" id="path3063"></path>
                <path d="M25.63285,10.69259 C25.0166,10.40884 23.98535,10.42759 23.34161,10.73379 L23.23536,10.8913 C22.70786,11.67754 22.87536,12.59379 22.87536,12.59379 C23.05411,13.56754 23.34036,14.55504 23.51285,14.7888 C23.6841,15.02129 24.6991,15.64005 25.00036,15.28255 C25.30161,14.92629 25.86911,13.54129 26.05911,12.5688 C26.05911,12.5688 26.24661,11.60379 25.73286,10.84005 L25.63286,10.69254 L25.63285,10.69259 L25.63285,10.69259 Z" id="path3067"></path>
                <path d="M39.4477154,32.882109 C40.4834358,35.6278645 40.2357071,38.5821584 38.7978942,40.5893404 C37.7820718,42.0081463 36.1251621,42.5270096 36.1251621,42.5270096 C35.1840417,42.8211977 34.4147032,43.0719403 34.4147032,43.0831021 C34.4147032,43.0955151 34.2727882,43.1042538 34.0997615,43.1042538 C33.92547,43.1042538 33.7163421,43.1042538 33.6354257,43.1052469 C33.5557541,43.1062399 33.3391371,43.0829035 33.3391371,43.0580775 C33.340133,43.0319605 32.5835021,42.7328569 31.658565,42.3902581 C31.658565,42.3902581 29.9867069,41.773332 29.0455865,40.2837721 C27.7310057,38.2083186 27.652579,35.2540247 28.8401833,32.5752994 C29.0642596,32.068849 29.9456263,30.9529204 29.9456263,30.9529204 C30.5556117,30.1808318 30.5045721,28.9593926 29.8323433,28.24068 C29.8323433,28.24068 28.6646569,26.9906909 27.5778869,25.8350407 C26.4438219,24.6297384 25.828847,23.9718494 25.828847,23.9718494 C25.1566182,23.2531368 24.0499403,23.2469303 23.3702323,23.9582448 C23.3702323,23.9582448 22.4701926,24.8991501 21.1493973,26.2707866 C20.1385643,27.3184437 19.1563633,28.3437575 19.1563633,28.3437575 C18.4754204,29.0550224 18.3982385,30.2839093 18.9833166,31.0746174 C18.9833166,31.0746174 19.9642828,32.401567 20.1933286,33.009804 C21.2166202,35.7307335 20.9751058,38.6440645 19.5634352,40.6140075 C18.5488576,42.0290895 16.8707753,42.5467115 16.8707753,42.5467115 C15.92841,42.838417 15.1578366,43.0854357 15.1565917,43.0966074 C15.1565917,43.1065378 15.0196662,43.1164682 14.8503541,43.1164682 C14.681062,43.1164682 14.4806283,43.1174613 14.4034464,43.1184543 L14.3325387,43.1184543 L14.2503774,43.1184543 C14.1594523,43.1164682 14.08481,43.0936283 14.08481,43.0688023 C14.0858059,43.0439763 13.3291849,42.7473056 12.4017481,42.4084307 C12.4017481,42.4084307 10.7062475,41.7890221 9.76636207,40.3007034 C8.47667859,38.2612476 8.40821083,35.3503992 9.58585618,32.7027064 C9.88835916,32.022474 10.9452523,30.784898 10.9452523,30.784898 C11.5851245,30.0363941 11.5938286,28.8037833 10.9651702,28.0465903 C10.9651702,28.0465903 8.10818763,24.6019829 6.26454774,22.4023994 C4.46819293,20.2599157 2.1440339,17.4657495 2.1440339,17.4657495 C1.51537545,16.7085565 1,16.8947515 1,17.8778611 L1,39.0631274 C1,40.0462369 1.69711625,41.2565044 2.54737121,41.7517831 L22.9520064,53.628541 C23.8047411,54.1238197 25.1977486,54.1238197 26.0479936,53.628541 L46.4526288,41.7517831 C47.3041187,41.2565044 48,40.0462369 48,39.0631274 L48,18.9292422 C48,17.9461326 47.4572375,17.7363529 46.7937227,18.4637547 L38.0920938,28.1086553 C37.4385379,28.8435049 37.4161303,30.064944 38.0447888,30.822137 C38.0447888,30.822137 39.195047,32.208669 39.4477553,32.8814536" id="path3071"></path>
                <path d="M15.19947,33.49723 C14.91322,33.11098 14.41822,33.09723 14.10197,33.46843 C13.78448,33.83717 13.18948,35.22468 12.97572,36.19092 C12.97572,36.19092 12.77323,37.10217 13.26822,37.88842 L13.36947,38.05092 C14.04947,38.36842 15.08322,38.40593 15.66822,38.13222 L15.77072,37.98847 C16.31197,37.23347 16.16072,36.27972 16.16072,36.27972 C16.00572,35.30222 15.48572,33.88472 15.19947,33.49722" id="path3075"></path>
                <path d="M13.77497,24.64347 C14.40497,25.40597 15.47998,25.44472 16.16497,24.72847 C16.16497,24.72847 16.70622,24.16223 17.77122,23.05348 C18.87997,21.90098 20.20622,20.50848 20.20622,20.50848 C20.88747,19.79223 20.93122,18.58223 20.29992,17.81973 C20.29992,17.81973 19.37993,16.70848 19.12868,16.09223 C18.03867,13.38723 18.20743,10.45223 19.56618,8.42848 C20.55493,6.95473 22.26993,6.37098 22.26993,6.37098 C23.20743,6.05098 23.97368,5.77598 23.97243,5.75973 C23.97243,5.74093 23.97343,5.72723 23.97443,5.72723 C23.97443,5.72723 24.20443,5.72623 24.48318,5.72523 C24.76318,5.72323 24.99192,5.73643 24.99192,5.75273 C24.99192,5.77023 25.76068,6.03648 26.70193,6.34523 C26.70193,6.34523 28.41068,6.90647 29.39692,8.36898 C30.75943,10.38898 30.90692,13.33772 29.78442,16.06148 C29.50317,16.74148 28.58817,17.84523 28.58817,17.84523 C27.95568,18.60648 27.98942,19.82273 28.66437,20.54648 C28.66437,20.54648 29.63437,21.58773 30.63562,22.65398 C31.83687,23.93398 32.55562,24.70523 32.55562,24.70523 C33.23062,25.42898 34.32187,25.41898 34.98312,24.68023 L44.99497,13.57723 C45.66372,12.84848 45.51248,11.84348 44.65747,11.34473 L25.87872,0.38098 C25.02373,-0.11777 23.62497,-0.11777 22.76998,0.38098 L4.69623,10.93098 C3.84248,11.43098 3.65873,12.46348 4.28873,13.22723 C4.28873,13.22723 7.23123,16.78723 9.40373,19.38598 C11.67123,22.09973 13.77498,24.64348 13.77498,24.64348" id="path3079"></path>
            </g>
            <path d="M55.08235,53.96748 C54.9086,54.21123 54.6086,54.51623 53.93735,54.61748 C53.1236,54.50747 52.8011,54.14747 52.62485,53.86998 C52.1061,53.04623 52.1461,51.55998 52.69985,50.30498 C52.8461,50.03498 53.2586,49.48748 53.8861,48.71748 C54.5536,49.48873 55.03735,50.08748 55.2211,50.40123 C55.69735,51.72498 55.6436,53.18248 55.08235,53.96748 M45.71485,30.33623 C45.5486,30.63498 45.08985,31.20248 44.45235,31.93248 C43.8261,31.21248 43.3736,30.65498 43.19861,30.36498 C42.69486,29.06623 42.7086,27.67748 43.23481,26.89123 C43.34105,26.73373 43.62981,26.30373 44.51231,26.17748 C45.36106,26.28998 45.63231,26.69248 45.73356,26.83998 C46.2473,27.60373 46.23856,29.03748 45.71476,30.33623 M35.77101,53.98873 C35.66851,54.13248 35.39476,54.51373 34.60601,54.62873 C33.65476,54.50373 33.36976,54.04998 33.26851,53.88873 C32.77226,53.10248 32.82101,51.66248 33.36471,50.43373 C33.52596,50.13998 34.00471,49.55498 34.67721,48.79498 C35.29346,49.59873 35.72221,50.19998 35.87846,50.50248 C36.35346,51.80623 36.31096,53.23373 35.77096,53.98873 M66.21096,28.25248 C62.60596,32.15623 57.55221,37.68248 53.78346,42.02123 C52.87971,41.04873 51.83721,39.93373 50.63596,38.65373 C49.63596,37.58748 48.50846,36.38498 47.43846,35.22873 C48.78096,33.70998 49.50346,32.74123 49.78471,32.06123 C50.90721,29.33623 50.75971,26.38873 49.39721,24.36873 C48.41096,22.90623 46.87096,22.00873 44.99221,21.78373 L44.99221,21.72123 L43.97596,21.72723 L43.97196,21.72723 L43.97296,21.78973 C42.09546,22.03973 40.55421,22.95473 39.56546,24.42848 C38.20671,26.45223 38.03796,29.38723 39.12796,32.09223 C39.37921,32.70848 40.00921,33.57223 41.44671,35.20598 C40.20046,36.52723 38.87921,37.90098 37.77046,39.05348 C36.70546,40.16223 35.75796,41.14973 34.92046,42.03098 C33.48171,40.27598 31.67046,38.09973 29.40296,35.38598 C27.23045,32.78723 25.01546,30.13723 23.14171,27.83848 L20.72671,29.24973 L20.72671,31.86473 C22.37796,33.87223 24.20921,36.06348 26.01171,38.22098 C27.86421,40.43598 30.03796,43.03723 31.87921,45.29223 C30.42421,46.90848 29.65046,47.90848 29.34671,48.59473 C28.16546,51.25973 28.23296,54.19223 29.52921,56.24473 C30.47296,57.74348 31.99046,58.69598 33.86546,58.98723 L33.86446,59.07723 C33.94826,59.08123 34.03071,59.08223 34.11446,59.08223 C34.18446,59.08223 34.25696,59.08123 34.32696,59.07923 L34.94196,59.07923 L34.94296,59.03923 C36.80046,58.84298 38.34671,57.98423 39.36671,56.55923 C40.78421,54.57548 41.02671,51.64298 39.99921,48.90173 C39.76796,48.28923 39.11546,47.30173 37.71421,45.50423 C38.80171,44.35797 39.94421,43.17047 40.95796,42.11548 C42.28546,40.73423 43.43671,39.53298 44.43046,38.48423 C45.28671,39.40673 46.27421,40.46298 47.41296,41.67673 C48.50421,42.84172 49.74046,44.15798 50.90421,45.41673 C49.71796,46.86673 48.90671,47.95423 48.68171,48.46548 C47.48921,51.16173 47.56671,54.13673 48.88671,56.22798 C49.83296,57.72673 51.34296,58.68048 53.19921,58.97423 L53.19821,59.06673 C53.34821,59.07073 53.49571,59.07173 53.64571,59.06673 L54.27821,59.06673 L54.27821,59.02553 C56.12196,58.82678 57.66071,57.96303 58.67946,56.53553 C60.12321,54.51303 60.37196,51.53803 59.33196,48.77303 C59.07821,48.09553 58.38946,47.14428 56.77571,45.31303 C59.66196,41.99927 63.73446,37.48178 67.92071,32.92303" id="path3083" fill="#333B47" sketch:type="MSShapeGroup"></path>
        </g>
    </g>
</svg>