<?xml version="1.0" encoding="UTF-8" standalone="no"?>
<svg width="85px" height="85px" viewBox="0 0 85 85" version="1.1" xmlns="http://www.w3.org/2000/svg" xmlns:xlink="http://www.w3.org/1999/xlink" xmlns:sketch="http://www.bohemiancoding.com/sketch/ns">
    <!-- Generator: Sketch 3.4 (15588) - http://www.bohemiancoding.com/sketch -->
    <title>Slice 1</title>
    <desc>Created with Sketch.</desc>
    <defs></defs>
    <g id="Page-1" stroke="none" stroke-width="1" fill="none" fill-rule="evenodd" sketch:type="MSPage">
        <g id="medium-logo-no-text" sketch:type="MSLayerGroup">
            <g id="path3059-+-Outline-+-path3083" sketch:type="MSShapeGroup">
                <g id="Page-1">
                    <g id="path3059-+-Outline-+-path3083">
                        <path d="M0,85 L0,0 L85,0 L85,85 L0,85 L0,85 L0,85 Z" id="path3059" fill="#333B47"></path>
                        <g id="Outline" transform="translate(19.000000, 15.000000)" fill="#25A6F7">
                            <path d="M33.46098,33.4026 C33.14473,33.02634 32.65223,33.01385 32.36598,33.3763 C32.08098,33.73879 31.52848,35.0963 31.31847,36.0638 C31.31847,36.0638 31.10597,37.04629 31.62472,37.87004 L31.80098,38.14629 C32.42598,38.40504 33.37472,38.4338 33.90847,38.21129 L34.08223,37.96754 C34.64348,37.18129 34.49098,36.18129 34.49098,36.18129 C34.34347,35.20129 33.77848,33.77879 33.46098,33.40254" id="path3063"></path>
                            <path d="M24.63285,10.69259 C24.0166,10.40884 22.98535,10.42759 22.34161,10.73379 L22.23536,10.8913 C21.70786,11.67754 21.87536,12.59379 21.87536,12.59379 C22.05411,13.56754 22.34036,14.55504 22.51285,14.7888 C22.6841,15.02129 23.6991,15.64005 24.00036,15.28255 C24.30161,14.92629 24.86911,13.54129 25.05911,12.5688 C25.05911,12.5688 25.24661,11.60379 24.73286,10.84005 L24.63286,10.69254 L24.63285,10.69259 L24.63285,10.69259 L24.63285,10.69259 Z" id="path3067"></path>
                            <path d="M38.4477154,32.882109 C39.4834358,35.6278645 39.2357071,38.5821584 37.7978942,40.5893404 C36.7820718,42.0081463 35.1251621,42.5270096 35.1251621,42.5270096 C34.1840417,42.8211977 33.4147032,43.0719403 33.4147032,43.0831021 C33.4147032,43.0955151 33.2727882,43.1042538 33.0997615,43.1042538 C32.92547,43.1042538 32.7163421,43.1042538 32.6354257,43.1052469 C32.5557541,43.1062399 32.3391371,43.0829035 32.3391371,43.0580775 C32.340133,43.0319605 31.5835021,42.7328569 30.658565,42.3902581 C30.658565,42.3902581 28.9867069,41.773332 28.0455865,40.2837721 C26.7310057,38.2083186 26.652579,35.2540247 27.8401833,32.5752994 C28.0642596,32.068849 28.9456263,30.9529204 28.9456263,30.9529204 C29.5556117,30.1808318 29.5045721,28.9593926 28.8323433,28.24068 C28.8323433,28.24068 27.6646569,26.9906909 26.5778869,25.8350407 C25.4438219,24.6297384 24.828847,23.9718494 24.828847,23.9718494 C24.1566182,23.2531368 23.0499403,23.2469303 22.3702323,23.9582448 C22.3702323,23.9582448 21.4701926,24.8991501 20.1493973,26.2707866 C19.1385643,27.3184437 18.1563633,28.3437575 18.1563633,28.3437575 C17.4754204,29.0550224 17.3982385,30.2839093 17.9833166,31.0746174 C17.9833166,31.0746174 18.9642828,32.401567 19.1933286,33.009804 C20.2166202,35.7307335 19.9751058,38.6440645 18.5634352,40.6140075 C17.5488576,42.0290895 15.8707753,42.5467115 15.8707753,42.5467115 C14.92841,42.838417 14.1578366,43.0854357 14.1565917,43.0966074 C14.1565917,43.1065378 14.0196662,43.1164682 13.8503541,43.1164682 C13.681062,43.1164682 13.4806283,43.1174613 13.4034464,43.1184543 L13.3325387,43.1184543 L13.2503774,43.1184543 C13.1594523,43.1164682 13.08481,43.0936283 13.08481,43.0688023 C13.0858059,43.0439763 12.3291849,42.7473056 11.4017481,42.4084307 C11.4017481,42.4084307 9.7062475,41.7890221 8.76636207,40.3007034 C7.47667859,38.2612476 7.40821083,35.3503992 8.58585618,32.7027064 C8.88835916,32.022474 9.9452523,30.784898 9.9452523,30.784898 C10.5851245,30.0363941 10.5938286,28.8037833 9.9651702,28.0465903 C9.9651702,28.0465903 7.10818763,24.6019829 5.26454774,22.4023994 C3.46819293,20.2599157 1.1440339,17.4657495 1.1440339,17.4657495 C0.51537545,16.7085565 0,16.8947515 0,17.8778611 L0,39.0631274 C0,40.0462369 0.69711625,41.2565044 1.54737121,41.7517831 L21.9520064,53.628541 C22.8047411,54.1238197 24.1977486,54.1238197 25.0479936,53.628541 L45.4526288,41.7517831 C46.3041187,41.2565044 47,40.0462369 47,39.0631274 L47,18.9292422 C47,17.9461326 46.4572375,17.7363529 45.7937227,18.4637547 L37.0920938,28.1086553 C36.4385379,28.8435049 36.4161303,30.064944 37.0447888,30.822137 C37.0447888,30.822137 38.195047,32.208669 38.4477553,32.8814536" id="path3071"></path>
                            <path d="M14.19947,33.49723 C13.91322,33.11098 13.41822,33.09723 13.10197,33.46843 C12.78448,33.83717 12.18948,35.22468 11.97572,36.19092 C11.97572,36.19092 11.77323,37.10217 12.26822,37.88842 L12.36947,38.05092 C13.04947,38.36842 14.08322,38.40593 14.66822,38.13222 L14.77072,37.98847 C15.31197,37.23347 15.16072,36.27972 15.16072,36.27972 C15.00572,35.30222 14.48572,33.88472 14.19947,33.49722" id="path3075"></path>
                            <path d="M12.77497,24.64347 C13.40497,25.40597 14.47998,25.44472 15.16497,24.72847 C15.16497,24.72847 15.70622,24.16223 16.77122,23.05348 C17.87997,21.90098 19.20622,20.50848 19.20622,20.50848 C19.88747,19.79223 19.93122,18.58223 19.29992,17.81973 C19.29992,17.81973 18.37993,16.70848 18.12868,16.09223 C17.03867,13.38723 17.20743,10.45223 18.56618,8.42848 C19.55493,6.95473 21.26993,6.37098 21.26993,6.37098 C22.20743,6.05098 22.97368,5.77598 22.97243,5.75973 C22.97243,5.74093 22.97343,5.72723 22.97443,5.72723 C22.97443,5.72723 23.20443,5.72623 23.48318,5.72523 C23.76318,5.72323 23.99192,5.73643 23.99192,5.75273 C23.99192,5.77023 24.76068,6.03648 25.70193,6.34523 C25.70193,6.34523 27.41068,6.90647 28.39692,8.36898 C29.75943,10.38898 29.90692,13.33772 28.78442,16.06148 C28.50317,16.74148 27.58817,17.84523 27.58817,17.84523 C26.95568,18.60648 26.98942,19.82273 27.66437,20.54648 C27.66437,20.54648 28.63437,21.58773 29.63562,22.65398 C30.83687,23.93398 31.55562,24.70523 31.55562,24.70523 C32.23062,25.42898 33.32187,25.41898 33.98312,24.68023 L43.99497,13.57723 C44.66372,12.84848 44.51248,11.84348 43.65747,11.34473 L24.87872,0.38098 C24.02373,-0.11777 22.62497,-0.11777 21.76998,0.38098 L3.69623,10.93098 C2.84248,11.43098 2.65873,12.46348 3.28873,13.22723 C3.28873,13.22723 6.23123,16.78723 8.40373,19.38598 C10.67123,22.09973 12.77498,24.64348 12.77498,24.64348" id="path3079"></path>
                        </g>
                        <path d="M53.08235,52.96748 C52.9086,53.21123 52.6086,53.51623 51.93735,53.61748 C51.1236,53.50747 50.8011,53.14747 50.62485,52.86998 C50.1061,52.04623 50.1461,50.55998 50.69985,49.30498 C50.8461,49.03498 51.2586,48.48748 51.8861,47.71748 C52.5536,48.48873 53.03735,49.08748 53.2211,49.40123 C53.69735,50.72498 53.6436,52.18248 53.08235,52.96748 M43.71485,29.33623 C43.5486,29.63498 43.08985,30.20248 42.45235,30.93248 C41.8261,30.21248 41.3736,29.65498 41.19861,29.36498 C40.69486,28.06623 40.7086,26.67748 41.23481,25.89123 C41.34105,25.73373 41.62981,25.30373 42.51231,25.17748 C43.36106,25.28998 43.63231,25.69248 43.73356,25.83998 C44.2473,26.60373 44.23856,28.03748 43.71476,29.33623 M33.77101,52.98873 C33.66851,53.13248 33.39476,53.51373 32.60601,53.62873 C31.65476,53.50373 31.36976,53.04998 31.26851,52.88873 C30.77226,52.10248 30.82101,50.66248 31.36471,49.43373 C31.52596,49.13998 32.00471,48.55498 32.67721,47.79498 C33.29346,48.59873 33.72221,49.19998 33.87846,49.50248 C34.35346,50.80623 34.31096,52.23373 33.77096,52.98873 M64.21096,27.25248 C60.60596,31.15623 55.55221,36.68248 51.78346,41.02123 C50.87971,40.04873 49.83721,38.93373 48.63596,37.65373 C47.63596,36.58748 46.50846,35.38498 45.43846,34.22873 C46.78096,32.70998 47.50346,31.74123 47.78471,31.06123 C48.90721,28.33623 48.75971,25.38873 47.39721,23.36873 C46.41096,21.90623 44.87096,21.00873 42.99221,20.78373 L42.99221,20.72123 L41.97596,20.72723 L41.97196,20.72723 L41.97296,20.78973 C40.09546,21.03973 38.55421,21.95473 37.56546,23.42848 C36.20671,25.45223 36.03796,28.38723 37.12796,31.09223 C37.37921,31.70848 38.00921,32.57223 39.44671,34.20598 C38.20046,35.52723 36.87921,36.90098 35.77046,38.05348 C34.70546,39.16223 33.75796,40.14973 32.92046,41.03098 C31.48171,39.27598 29.67046,37.09973 27.40296,34.38598 C25.23045,31.78723 23.01546,29.13723 21.14171,26.83848 L18.72671,28.24973 L18.72671,30.86473 C20.37796,32.87223 22.20921,35.06348 24.01171,37.22098 C25.86421,39.43598 28.03796,42.03723 29.87921,44.29223 C28.42421,45.90848 27.65046,46.90848 27.34671,47.59473 C26.16546,50.25973 26.23296,53.19223 27.52921,55.24473 C28.47296,56.74348 29.99046,57.69598 31.86546,57.98723 L31.86446,58.07723 C31.94826,58.08123 32.03071,58.08223 32.11446,58.08223 C32.18446,58.08223 32.25696,58.08123 32.32696,58.07923 L32.94196,58.07923 L32.94296,58.03923 C34.80046,57.84298 36.34671,56.98423 37.36671,55.55923 C38.78421,53.57548 39.02671,50.64298 37.99921,47.90173 C37.76796,47.28923 37.11546,46.30173 35.71421,44.50423 C36.80171,43.35797 37.94421,42.17047 38.95796,41.11548 C40.28546,39.73423 41.43671,38.53298 42.43046,37.48423 C43.28671,38.40673 44.27421,39.46298 45.41296,40.67673 C46.50421,41.84172 47.74046,43.15798 48.90421,44.41673 C47.71796,45.86673 46.90671,46.95423 46.68171,47.46548 C45.48921,50.16173 45.56671,53.13673 46.88671,55.22798 C47.83296,56.72673 49.34296,57.68048 51.19921,57.97423 L51.19821,58.06673 C51.34821,58.07073 51.49571,58.07173 51.64571,58.06673 L52.27821,58.06673 L52.27821,58.02553 C54.12196,57.82678 55.66071,56.96303 56.67946,55.53553 C58.12321,53.51303 58.37196,50.53803 57.33196,47.77303 C57.07821,47.09553 56.38946,46.14428 54.77571,44.31303 C57.66196,40.99927 61.73446,36.48178 65.92071,31.92303" id="path3083" fill="#333B47"></path>
                    </g>
                </g>
            </g>
        </g>
    </g>
</svg>